<svg xmlns="http://www.w3.org/2000/svg" viewBox="0 0 48 48" id="finance">
  <g>
    <path fill="#c1ecfb" d="M29.23,29.63a12.3,12.3,0,0,1-4.12,8.67,10.887,10.887,0,0,1-6.34,2.67c-.41.04-.73.05-.93.05H17.6c-.62.06-1.93,0-2.58,0C7.15,41.02.78,36.48.78,29.19c0-5.56,3.7-13.39,8.93-16.82.16-.11.33-.21.49-.31a1.678,1.678,0,0,0,.66-.69,1.469,1.469,0,0,0,.07-1.23,1.227,1.227,0,0,0-.12-.26c-.14-.23-.28-.48-.44-.74C8.87,6.55,6.82,2.6,8.41,2.6c2.35,0,4.17,1.01,6.69,1.01S18.72,2.6,21.63,2.6c1.96,0-.18,3.95-1.79,6.54-.17.27-.33.53-.48.76-.05.08-.09.16-.13.24a1.506,1.506,0,0,0,.03,1.23,1.686,1.686,0,0,0,.68.75c.13.08.27.17.4.25,4.32,2.84,7.48,8.72,8.59,13.79.07.34.13.67.19,1,.02.14.04.29.06.43A12.508,12.508,0,0,1,29.23,29.63Z"></path>
    <path fill="#f6cc7c" d="M47.25,18.45V36.03c0,1.57-4.2,2.85-9.38,2.85S28.5,37.6,28.5,36.03V18.45c0,1.57,4.2,2.85,9.37,2.85S47.25,20.02,47.25,18.45Z"></path>
    <ellipse cx="37.874" cy="18.454" fill="#ffb963" rx="9.376" ry="2.844"></ellipse>
    <path fill="#fcac44" d="M35.68,36.07v.23a9.1,9.1,0,1,1-9.1-9.09,8.69,8.69,0,0,1,1.92.21c.02,0,.03,0,.04.01a9.029,9.029,0,0,1,3.81,1.84,8.829,8.829,0,0,1,.71.65,8.972,8.972,0,0,1,1.81,2.65,4.987,4.987,0,0,1,.23.53,9.01,9.01,0,0,1,.55,2.45C35.66,35.72,35.67,35.9,35.68,36.07Z"></path>
    <path fill="#eb7729" d="M27.393,35.554H25.51a1.108,1.108,0,0,1,0-2.215h1.883A1.108,1.108,0,0,1,28.5,34.446a.75.75,0,0,0,1.5,0,2.61,2.61,0,0,0-2.607-2.607H27.2V30.4a.75.75,0,0,0-1.5,0v1.439H25.51a2.608,2.608,0,0,0,0,5.215h1.883a1.107,1.107,0,0,1,0,2.214H25.51A1.108,1.108,0,0,1,24.4,38.161a.75.75,0,0,0-1.5,0,2.61,2.61,0,0,0,2.607,2.607H25.7v1.438a.75.75,0,0,0,1.5,0V40.768h.191a2.607,2.607,0,0,0,0-5.214Z"></path>
  </g>
  <g>
    <path fill="#1a1a1a" d="M26.578,26.456a9.85,9.85,0,0,0-4.923,1.316.75.75,0,1,0,.751,1.3,8.361,8.361,0,1,1-1.716,1.315.75.75,0,1,0-1.058-1.063,9.847,9.847,0,1,0,6.946-2.867Z"></path>
    <path fill="#1a1a1a" d="M27.393 39.268H25.51A1.108 1.108 0 0 1 24.4 38.161a.75.75 0 0 0-1.5 0 2.61 2.61 0 0 0 2.607 2.607H25.7v1.438a.75.75 0 0 0 1.5 0V40.768h.191a2.607 2.607 0 0 0 0-5.214H25.51a1.108 1.108 0 0 1 0-2.215h1.883A1.108 1.108 0 0 1 28.5 34.446a.75.75 0 0 0 1.5 0 2.61 2.61 0 0 0-2.607-2.607H27.2V30.4a.75.75 0 0 0-1.5 0v1.439H25.51a2.608 2.608 0 0 0 0 5.215h1.883a1.107 1.107 0 0 1 0 2.214zM44.417 15.637a.75.75 0 0 0-.4 1.445c2.029.564 2.486 1.2 2.486 1.372 0 .626-2.935 2.094-8.625 2.094s-8.626-1.468-8.626-2.094 2.934-2.094 8.626-2.094a27.333 27.333 0 0 1 4.023.283.751.751 0 0 0 .221-1.485 29.106 29.106 0 0 0-4.244-.3c-4.877 0-10.126 1.125-10.126 3.594v5.835c0 2.469 5.249 3.594 10.126 3.594 3.278 0 6.718-.511 8.625-1.595v.918c0 .626-2.935 2.094-8.625 2.094-.653 0-1.289-.02-1.9-.06a.758.758 0 0 0-.8.7.749.749 0 0 0 .7.8c.645.042 1.314.064 2 .064 3.278 0 6.718-.511 8.625-1.6v.918c0 .626-2.935 2.1-8.625 2.1l-.247 0c-.042 0-.066 0-.2 0a.779.779 0 0 0-.772.727.752.752 0 0 0 .728.773c.1 0 .163 0 .205 0l.1 0 .194 0c3.278 0 6.718-.512 8.625-1.6v.918c0 .626-2.935 2.094-8.625 2.094a.75.75 0 0 0 0 1.5c3.278 0 6.718-.512 8.625-1.595v.991c0 .626-2.935 2.094-8.625 2.094h-.269a.794.794 0 0 0-.758.742.751.751 0 0 0 .742.758h.285C42.751 39.625 48 38.5 48 36.031V18.454C48 17.624 47.378 16.462 44.417 15.637zm-6.542 6.411c3.278 0 6.718-.511 8.625-1.595v.918c0 .626-2.935 2.1-8.625 2.1s-8.626-1.469-8.626-2.1v-.918C31.156 21.537 34.6 22.048 37.875 22.048zm0 4.335c-5.692 0-8.626-1.468-8.626-2.094v-.918c1.907 1.084 5.346 1.6 8.626 1.6s6.718-.511 8.625-1.6v.918C46.5 24.915 43.565 26.383 37.875 26.383zM15.8 40.28c-.264.01-.53.016-.8.016-7.95 0-13.5-4.561-13.5-11.091 0-5.325 3.6-13.2 8.969-16.435.073-.045.134-.1.2-.15H16.8a.75.75 0 0 0 0-1.5H11.615a2.25 2.25 0 0 0-.326-1.626C8.754 5.567 8.261 3.8 8.353 3.342a.053.053 0 0 0 .032.007 11.7 11.7 0 0 1 3.323.506 11.594 11.594 0 0 0 3.214.5 15.118 15.118 0 0 0 3.643-.538 13.576 13.576 0 0 1 2.883-.468c-.027.565-.587 2.234-2.524 5.54H13.2a.75.75 0 0 0 0 1.5h5.062a2.234 2.234 0 0 0 .048.837 2.409 2.409 0 0 0 1.133 1.486 18.354 18.354 0 0 1 6.348 7.069.75.75 0 1 0 1.317-.717 19.853 19.853 0 0 0-6.9-7.643.927.927 0 0 1-.443-.563.76.76 0 0 1 .091-.591c3.764-6.262 3.156-7.337 2.9-7.8a1.253 1.253 0 0 0-1.132-.625 14.31 14.31 0 0 0-3.4.511 13.742 13.742 0 0 1-3.3.5 10.2 10.2 0 0 1-2.83-.453 13.307 13.307 0 0 0-3.707-.556 1.425 1.425 0 0 0-1.335.725c-.252.463-.922 1.693 2.979 7.735a.759.759 0 0 1 .109.6.932.932 0 0 1-.444.581C3.9 14.982 0 23.471 0 29.205 0 36.5 6.31 41.8 15 41.8q.432 0 .858-.018a.75.75 0 1 0-.059-1.5z"></path>
  </g>
</svg>
